<mxfile host="app.diagrams.net" modified="2023-12-30T12:23:24.599Z" agent="Mozilla/5.0 (Windows NT 10.0; Win64; x64) AppleWebKit/537.36 (KHTML, like Gecko) Chrome/120.0.0.0 Safari/537.36" etag="gul6m3Mcey29yiQPnC0X" version="22.1.16" type="github">
  <diagram name="Page-1" id="ktRlX-7At_bTCSzb5QlZ">
    <mxGraphModel dx="1080" dy="541" grid="1" gridSize="10" guides="1" tooltips="1" connect="1" arrows="1" fold="1" page="1" pageScale="1" pageWidth="850" pageHeight="1100" math="0" shadow="0">
      <root>
        <mxCell id="0" />
        <mxCell id="1" parent="0" />
      </root>
    </mxGraphModel>
  </diagram>
</mxfile>
